<?xml version="1.0" encoding="UTF-8" standalone="no"?>
<!-- Created with Inkscape (http://www.inkscape.org/) -->

<svg
   xmlns:dc="http://purl.org/dc/elements/1.1/"
   xmlns:cc="http://creativecommons.org/ns#"
   xmlns:rdf="http://www.w3.org/1999/02/22-rdf-syntax-ns#"
   xmlns:svg="http://www.w3.org/2000/svg"
   xmlns="http://www.w3.org/2000/svg"
   xmlns:sodipodi="http://sodipodi.sourceforge.net/DTD/sodipodi-0.dtd"
   xmlns:inkscape="http://www.inkscape.org/namespaces/inkscape"
   width="512"
   height="512"
   viewBox="0 0 512 512"
   id="svg2"
   version="1.1"
   inkscape:version="0.91 r13725"
   sodipodi:docname="signin.svg">
  <defs
     id="defs4">
    <filter
       y="-0.25"
       height="1.5"
       inkscape:menu-tooltip="Darkens the edge with an inner blur and adds a flexible glow"
       inkscape:menu="Shadows and Glows"
       inkscape:label="Dark And Glow"
       style="color-interpolation-filters:sRGB"
       id="filter4150">
      <feGaussianBlur
         stdDeviation="5"
         result="result6"
         id="feGaussianBlur4152" />
      <feComposite
         result="result8"
         in="SourceGraphic"
         operator="atop"
         in2="result6"
         id="feComposite4154" />
      <feComposite
         result="result9"
         operator="over"
         in2="SourceAlpha"
         in="result8"
         id="feComposite4156" />
      <feColorMatrix
         values="1 0 0 0 0 0 1 0 0 0 0 0 1 0 0 0 0 0 1 0 "
         result="result10"
         id="feColorMatrix4158" />
      <feBlend
         in="result10"
         mode="normal"
         in2="result6"
         id="feBlend4160" />
    </filter>
    <filter
       inkscape:label="Ink Bleed"
       inkscape:menu="Protrusions"
       inkscape:menu-tooltip="Inky splotches underneath the object"
       style="color-interpolation-filters:sRGB"
       id="filter4190">
      <feGaussianBlur
         result="result1"
         in="SourceGraphic"
         stdDeviation="1.3"
         id="feGaussianBlur4192" />
      <feTurbulence
         result="result0"
         numOctaves="4"
         baseFrequency="0.034"
         id="feTurbulence4194" />
      <feDisplacementMap
         result="result2"
         scale="19.6"
         yChannelSelector="G"
         xChannelSelector="R"
         in="result1"
         in2="result0"
         id="feDisplacementMap4196" />
      <feColorMatrix
         values="2 0 0 0 0 0 2 0 0 0 0 0 2 0 0 0 0 0 0.7 0"
         result="result3"
         id="feColorMatrix4198" />
      <feGaussianBlur
         result="result4"
         in="SourceGraphic"
         stdDeviation="1.1"
         id="feGaussianBlur4200" />
      <feComposite
         in="result4"
         in2="result3"
         id="feComposite4202" />
    </filter>
  </defs>
  <sodipodi:namedview
     id="base"
     pagecolor="#ffffff"
     bordercolor="#666666"
     borderopacity="1.0"
     inkscape:pageopacity="1"
     inkscape:pageshadow="2"
     inkscape:zoom="0.49497475"
     inkscape:cx="-72.143518"
     inkscape:cy="394.54491"
     inkscape:document-units="px"
     inkscape:current-layer="layer1"
     showgrid="false"
     fit-margin-top="0"
     fit-margin-left="0"
     fit-margin-right="0"
     fit-margin-bottom="0"
     inkscape:window-width="1920"
     inkscape:window-height="1018"
     inkscape:window-x="-8"
     inkscape:window-y="-8"
     inkscape:window-maximized="1"
     units="px" />
  <metadata
     id="metadata7">
    <rdf:RDF>
      <cc:Work
         rdf:about="">
        <dc:format>image/svg+xml</dc:format>
        <dc:type
           rdf:resource="http://purl.org/dc/dcmitype/StillImage" />
        <dc:title></dc:title>
      </cc:Work>
    </rdf:RDF>
  </metadata>
  <g
     inkscape:label="Calque 1"
     inkscape:groupmode="layer"
     id="layer1"
     transform="translate(-345.00002,73.20924)"
     style="opacity:1">
    <path
       transform="matrix(2.1333332,0,0,2.1333332,-347.619,-539.96282)"
       style="opacity:1;fill:#28170b;fill-opacity:1;stroke:none;stroke-width:13.19999981;stroke-linecap:round;stroke-linejoin:round;stroke-miterlimit:4;stroke-dasharray:none;stroke-opacity:1;filter:url(#filter4190)"
       d="m 545,338.79077 a 100,100 0 0 1 -99.55232,99.999 100,100 0 0 1 -100.44367,-99.10366 100,100 0 0 1 98.653,-100.88632 100,100 0 0 1 101.32696,98.20037"
       id="path4138" />
    <g
       transform="translate(-202.78324,-380.07329)"
       style="font-style:normal;font-variant:normal;font-weight:normal;font-stretch:normal;font-size:22.5px;line-height:100%;font-family:'Myriad Pro';-inkscape-font-specification:'Myriad Pro, Normal';text-align:start;letter-spacing:0px;word-spacing:0px;writing-mode:lr-tb;text-anchor:start;fill:#000000;fill-opacity:1;stroke:none;stroke-width:0.40000001;stroke-linecap:butt;stroke-linejoin:miter;stroke-miterlimit:4;stroke-dasharray:none;stroke-opacity:1;filter:url(#filter4150)"
       id="flowRoot4140">
      <path
         d="m 574.27832,494.33582 q 0.36621,10.74219 3.2959,16.96777 2.92969,6.10352 8.30078,8.78907 5.37109,2.56347 14.16016,2.56347 13.30566,0 20.99609,-7.56836 7.69043,-7.69043 7.69043,-21.3623 0,-7.08008 -2.44141,-12.45117 -2.4414,-5.49317 -7.56836,-10.62012 -5.00488,-5.12695 -17.45605,-14.28223 -11.59668,-8.54492 -17.57813,-18.92089 -5.85937,-10.37598 -5.85937,-21.72852 0,-9.64356 4.15039,-18.9209 4.15039,-9.27734 12.20703,-16.11328 8.17871,-6.95801 20.50781,-10.62012 12.32911,-3.66211 28.8086,-3.66211 12.20703,0 22.46093,1.34278 10.25391,1.2207 21.11817,4.5166 l -7.44629,34.79004 -15.99121,0 q -0.12207,-13.67188 -5.37109,-20.01953 -5.24903,-6.34766 -16.96778,-6.34766 -12.81738,0 -20.26367,6.95801 -7.44629,6.83594 -7.44629,18.9209 0,8.54492 5.85938,16.23535 5.98144,7.56836 17.94433,16.23535 10.86426,8.05664 16.72363,14.52637 5.85938,6.34765 8.78907,13.5498 2.92968,7.20215 2.92968,16.47949 0,12.45118 -5.98144,23.68164 -5.73731,10.49805 -15.50293,17.45606 -8.66699,6.10351 -17.82227,8.78906 -11.23046,3.41797 -28.68652,3.41797 -11.23047,0 -23.55957,-1.95313 -12.20703,-1.95312 -23.55957,-5.49316 l 7.56836,-35.15625 15.99121,0 z"
         style="font-style:italic;font-variant:normal;font-weight:bold;font-stretch:normal;font-size:250px;font-family:Cambria;-inkscape-font-specification:'Cambria Bold Italic';text-align:center;text-anchor:middle;fill:#668000;fill-opacity:1;stroke-width:0.40000001;stroke-miterlimit:4;stroke-dasharray:none"
         id="path4281" />
      <path
         d="m 752.62305,365.18543 -6.34766,29.90723 -31.61621,0 6.71387,-29.90723 31.25,0 z M 724.4248,502.39246 q -1.34277,6.10352 -1.70898,9.0332 -0.36621,2.92969 -0.36621,4.88282 0,5.24902 2.68555,7.56836 2.80761,2.31933 9.52148,3.05175 l -1.34277,8.05664 -50.78125,0 19.04297,-85.20507 q 1.58691,-7.32422 2.19726,-11.35254 0.61035,-4.15039 0.61035,-6.95801 0,-4.76074 -2.31933,-6.71387 -2.19727,-2.07519 -9.39942,-2.80761 l 1.83106,-8.05665 35.7666,-1.34277 13.91601,0 -19.65332,89.84375 z"
         style="font-style:italic;font-variant:normal;font-weight:bold;font-stretch:normal;font-size:250px;font-family:Cambria;-inkscape-font-specification:'Cambria Bold Italic';text-align:center;text-anchor:middle;fill:#668000;fill-opacity:1;stroke-width:0.40000001;stroke-miterlimit:4;stroke-dasharray:none"
         id="path4283" />
      <path
         d="m 768.98047,545.11707 q -3.2959,4.02832 -4.63867,7.56836 -1.22071,3.54004 -1.22071,7.69043 0,8.30078 5.73731,12.3291 5.85937,4.15039 17.45605,4.15039 8.54492,0 15.38086,-2.80762 6.83594,-2.80761 12.57324,-9.27734 5.73731,-6.34766 10.62012,-19.04297 5.00488,-12.57324 9.52149,-33.93554 l -1.58692,-1.09864 q -7.93457,10.00977 -14.77051,15.625 -6.71386,5.61524 -13.67187,8.17871 -6.95801,2.44141 -15.86914,2.44141 -8.42285,0 -15.01465,-4.02832 -6.46973,-4.02832 -10.37598,-12.69531 -3.78418,-8.78907 -3.78418,-22.2168 0,-16.72363 4.88282,-32.95898 4.88281,-16.35743 13.79394,-28.07618 9.0332,-11.71875 22.33887,-18.31054 13.42773,-6.71387 30.63965,-6.71387 8.66699,0 15.86914,1.95312 7.32422,1.83106 14.89258,6.83594 l 10.98632,-8.78906 13.67188,1.95312 -10.49805,47.7295 q -2.56347,11.71875 -4.63867,22.46093 l -7.69043,37.59766 q -3.17383,15.25879 -6.46973,25.02441 -2.92968,8.54493 -6.46972,14.52637 -3.17383,5.61524 -7.44629,10.00977 -4.15039,4.39453 -8.91113,7.44629 -5.00489,3.2959 -11.1084,5.49316 -6.95801,2.56348 -15.50293,3.90625 -9.15528,1.46484 -20.87403,1.46484 -17.08984,0 -28.80859,-3.05175 -11.59668,-3.05176 -17.21191,-9.27735 -5.73731,-6.10351 -5.73731,-15.25879 0,-7.56836 5.3711,-14.28222 5.37109,-6.71387 15.86914,-12.81739 l 12.69531,10.25391 z m 74.34082,-86.18164 q 1.95312,-9.0332 1.95312,-17.57812 0,-8.42286 -3.05175,-12.57325 -3.05176,-4.15039 -10.00977,-4.15039 -10.98633,0 -19.77539,10.98633 -8.78906,10.98633 -14.4043,30.51758 -5.49316,19.53125 -5.49316,35.15625 0,8.91113 2.56348,13.30566 2.68554,4.39453 8.17871,4.39453 5.24902,0 10.62011,-3.29589 5.3711,-3.41797 11.23047,-10.37598 5.98145,-7.08008 10.00977,-16.96777 4.02832,-9.8877 7.20215,-24.90235 l 0.97656,-4.5166 z"
         style="font-style:italic;font-variant:normal;font-weight:bold;font-stretch:normal;font-size:250px;font-family:Cambria;-inkscape-font-specification:'Cambria Bold Italic';text-align:center;text-anchor:middle;fill:#668000;fill-opacity:1;stroke-width:0.40000001;stroke-miterlimit:4;stroke-dasharray:none"
         id="path4285" />
      <path
         d="m 1020.9336,534.98523 -50.65919,0 15.25879,-66.40625 q 3.2959,-14.16015 4.02832,-19.53125 0.73243,-5.37109 0.73243,-8.42285 0,-5.49316 -2.31934,-8.17871 -2.31934,-2.68554 -6.71387,-2.68554 -3.90625,0 -8.54492,2.92968 -4.63867,2.92969 -10.37598,9.15528 -5.7373,6.22558 -9.15527,13.18359 -3.41797,6.95801 -5.49316,17.33398 l -13.42774,62.62207 -35.03418,0 19.16504,-86.18164 q 0.61035,-2.92968 1.58692,-8.30078 1.09863,-5.49316 1.09863,-9.15527 0,-5.12695 -2.92969,-6.95801 -2.80762,-1.95312 -8.91113,-2.4414 l 1.83105,-8.05665 33.56934,-1.34277 12.81738,0 -6.95801,26.36719 1.46485,0.48828 q 8.42285,-10.37598 15.625,-16.23535 7.20215,-5.98145 14.28222,-8.54492 7.20215,-2.68555 15.86914,-2.68555 12.57327,0 19.77537,7.08008 7.2022,6.95801 7.2022,19.28711 0,7.93457 -2.4414,18.9209 l -10.0098,45.16601 q -1.2207,5.61524 -1.709,8.66699 -0.3662,3.05176 -0.3662,5.24903 0,5.49316 2.6856,7.69043 2.8076,2.19726 9.5214,2.92968 l -1.4648,8.05664 z"
         style="font-style:italic;font-variant:normal;font-weight:bold;font-stretch:normal;font-size:250px;font-family:Cambria;-inkscape-font-specification:'Cambria Bold Italic';text-align:center;text-anchor:middle;fill:#668000;fill-opacity:1;stroke-width:0.40000001;stroke-miterlimit:4;stroke-dasharray:none"
         id="path4287" />
      <path
         d="m 768.61426,784.98523 -61.40137,0 1.70898,-8.05664 q 5.12696,-1.46484 7.8125,-4.02832 2.80762,-2.56347 4.76075,-7.20214 1.95312,-4.76075 3.90625,-13.67188 l 22.21679,-100.70801 q 1.58692,-7.20215 1.58692,-14.28222 0,-5.12696 -2.44141,-7.44629 -2.31933,-2.44141 -7.69043,-3.17383 l 1.70899,-8.05664 61.40136,0 -1.70898,8.05664 q -5.12695,1.46484 -7.93457,4.02832 -2.68555,2.56348 -4.63867,7.32422 -1.95313,4.63867 -3.90625,13.5498 l -22.2168,100.70801 q -0.73242,3.17383 -0.97656,5.00488 -0.24414,1.83106 -0.48828,4.02832 -0.12207,2.0752 -0.12207,5.24903 0,5.12695 2.31933,7.56836 2.44141,2.31933 7.8125,3.05175 l -1.70898,8.05664 z"
         style="font-style:italic;font-variant:normal;font-weight:bold;font-stretch:normal;font-size:250px;font-family:Cambria;-inkscape-font-specification:'Cambria Bold Italic';text-align:center;text-anchor:middle;fill:#668000;fill-opacity:1;stroke-width:0.40000001;stroke-miterlimit:4;stroke-dasharray:none"
         id="path4289" />
      <path
         d="m 921.32422,784.98523 -50.65918,0 15.25879,-66.40625 q 3.2959,-14.16015 4.02832,-19.53125 0.73242,-5.37109 0.73242,-8.42285 0,-5.49316 -2.31934,-8.17871 -2.31933,-2.68554 -6.71386,-2.68554 -3.90625,0 -8.54492,2.92968 -4.63868,2.92969 -10.37598,9.15528 -5.73731,6.22558 -9.15527,13.18359 -3.41797,6.95801 -5.49317,17.33398 l -13.42773,62.62207 -35.03418,0 19.16504,-86.18164 q 0.61035,-2.92968 1.58691,-8.30078 1.09863,-5.49316 1.09863,-9.15527 0,-5.12695 -2.92968,-6.95801 -2.80762,-1.95312 -8.91114,-2.4414 l 1.83106,-8.05665 33.56933,-1.34277 12.81739,0 -6.95801,26.36719 1.46484,0.48828 q 8.42285,-10.37598 15.625,-16.23535 7.20215,-5.98145 14.28223,-8.54492 7.20215,-2.68555 15.86914,-2.68555 12.57324,0 19.77539,7.08008 7.20215,6.95801 7.20215,19.28711 0,7.93457 -2.44141,18.9209 l -10.00976,45.16601 q -1.22071,5.61524 -1.70899,8.66699 -0.36621,3.05176 -0.36621,5.24903 0,5.49316 2.68555,7.69043 2.80762,2.19726 9.52148,2.92968 l -1.46484,8.05664 z"
         style="font-style:italic;font-variant:normal;font-weight:bold;font-stretch:normal;font-size:250px;font-family:Cambria;-inkscape-font-specification:'Cambria Bold Italic';text-align:center;text-anchor:middle;fill:#668000;fill-opacity:1;stroke-width:0.40000001;stroke-miterlimit:4;stroke-dasharray:none"
         id="path4291" />
    </g>
    <flowRoot
       xml:space="preserve"
       id="flowRoot4204"
       style="fill:black;stroke:none;stroke-opacity:1;stroke-width:1px;stroke-linejoin:miter;stroke-linecap:butt;fill-opacity:1;font-family:'Myriad Pro';font-style:normal;font-weight:normal;font-size:22.5px;line-height:100%;letter-spacing:0px;word-spacing:0px;-inkscape-font-specification:'Myriad Pro, Normal';font-stretch:normal;font-variant:normal;text-anchor:start;text-align:start;writing-mode:lr"><flowRegion
         id="flowRegion4206"><rect
           id="rect4208"
           width="1519.2694"
           height="1177.8379"
           x="-727.30981"
           y="-481.99011" /></flowRegion><flowPara
         id="flowPara4210"></flowPara></flowRoot>    <flowRoot
       xml:space="preserve"
       id="flowRoot4272"
       style="fill:black;stroke:none;stroke-opacity:1;stroke-width:1px;stroke-linejoin:miter;stroke-linecap:butt;fill-opacity:1;font-family:'Myriad Pro';font-style:normal;font-weight:normal;font-size:22.5px;line-height:100%;letter-spacing:0px;word-spacing:0px;-inkscape-font-specification:'Myriad Pro, Normal';font-stretch:normal;font-variant:normal;text-anchor:start;text-align:start;writing-mode:lr"><flowRegion
         id="flowRegion4274"><rect
           id="rect4276"
           width="1121.2693"
           height="897.01544"
           x="-430.32498"
           y="-330.46722" /></flowRegion><flowPara
         id="flowPara4278"></flowPara></flowRoot>  </g>
</svg>
